<?xml version="1.0" standalone="no"?>
<!DOCTYPE svg PUBLIC "-//W3C//DTD SVG 20010904//EN"
 "http://www.w3.org/TR/2001/REC-SVG-20010904/DTD/svg10.dtd">
<svg version="1.0" xmlns="http://www.w3.org/2000/svg"
 width="797.000000pt" height="797.000000pt" viewBox="0 0 797.000000 797.000000"
 preserveAspectRatio="xMidYMid meet">
<metadata>
Created by potrace 1.14, written by Peter Selinger 2001-2017
</metadata>
<g transform="translate(0.000000,797.000000) scale(0.100000,-0.100000)"
fill="#000000" stroke="none">
<path d="M3765 7951 c-2 -1 -34 -5 -72 -7 -37 -2 -88 -6 -113 -8 -88 -10 -187
-23 -233 -31 -68 -12 -144 -26 -167 -31 -14 -3 -36 -7 -50 -10 -14 -3 -52 -12
-85 -20 -33 -8 -71 -17 -85 -20 -49 -10 -400 -124 -415 -134 -5 -4 -28 -13
-50 -20 -22 -7 -91 -37 -154 -66 -62 -30 -117 -54 -121 -54 -5 0 -10 -3 -12
-7 -1 -5 -23 -18 -48 -31 -132 -65 -285 -155 -400 -234 -30 -21 -63 -44 -74
-51 -10 -6 -24 -17 -30 -22 -6 -6 -28 -21 -48 -35 -21 -14 -38 -28 -38 -32 0
-5 -6 -8 -13 -8 -7 0 -19 -8 -28 -17 -8 -10 -30 -29 -48 -43 -18 -13 -43 -33
-55 -45 -216 -194 -322 -296 -406 -394 -30 -35 -60 -69 -65 -75 -51 -55 -208
-261 -240 -315 -5 -9 -16 -20 -22 -24 -7 -4 -13 -13 -13 -18 0 -6 -11 -25 -24
-42 -64 -86 -218 -367 -289 -527 -9 -19 -29 -65 -45 -102 -17 -37 -28 -69 -24
-72 3 -3 0 -6 -6 -6 -7 0 -12 -8 -12 -17 0 -10 -6 -30 -14 -45 -13 -24 -37
-90 -42 -113 -1 -5 -8 -23 -15 -40 -13 -33 -16 -40 -23 -73 -3 -12 -8 -27 -11
-32 -3 -5 -8 -18 -10 -27 -1 -10 -14 -61 -29 -113 -14 -52 -27 -106 -30 -120
-2 -14 -11 -59 -19 -100 -9 -41 -19 -91 -22 -110 -3 -19 -7 -46 -10 -60 -6
-34 -13 -89 -31 -255 -10 -89 -13 -588 -4 -675 16 -162 20 -195 24 -220 3 -14
7 -46 10 -71 12 -95 69 -360 100 -464 2 -5 6 -23 10 -40 4 -16 10 -37 13 -45
4 -8 7 -17 8 -20 7 -30 30 -88 38 -97 5 -7 7 -13 3 -13 -7 0 19 -72 58 -162 9
-20 16 -39 16 -43 0 -3 10 -27 21 -53 12 -26 30 -67 41 -92 62 -139 234 -461
257 -480 3 -3 12 -17 20 -33 8 -15 18 -27 23 -27 4 0 8 -7 8 -15 0 -8 5 -15
10 -15 6 0 10 -7 10 -15 0 -8 5 -15 10 -15 6 0 10 -5 10 -11 0 -6 6 -16 12
-24 7 -7 35 -45 63 -84 27 -39 53 -71 57 -71 4 0 8 -5 8 -11 0 -12 131 -169
210 -252 184 -195 326 -324 500 -457 47 -35 90 -68 95 -73 27 -22 135 -97 140
-97 3 0 11 -5 18 -10 7 -6 32 -23 57 -39 25 -15 59 -36 75 -46 67 -42 364
-195 379 -195 6 0 22 -9 36 -20 14 -11 35 -20 47 -20 12 0 23 -3 25 -7 3 -8
156 -73 179 -76 8 -2 19 -5 24 -9 6 -3 60 -22 120 -41 183 -59 468 -126 600
-142 33 -4 69 -9 80 -11 11 -2 43 -7 70 -9 28 -3 64 -8 80 -10 118 -18 456
-23 640 -11 160 11 185 13 233 20 23 3 61 8 85 11 104 14 283 49 411 81 158
39 384 111 405 128 8 6 15 9 15 7 1 -7 97 30 130 51 16 9 33 15 37 12 4 -2 10
0 14 6 3 5 14 10 24 10 10 0 24 7 31 15 7 8 16 12 21 9 5 -3 9 0 9 6 0 6 4 9
9 5 5 -3 12 -1 16 5 3 5 15 10 25 10 10 0 20 4 22 8 2 4 32 22 68 40 77 37
168 88 227 125 24 15 45 27 48 27 3 0 39 23 80 50 41 28 78 50 84 50 5 0 11 3
13 8 4 9 85 72 93 72 3 0 16 11 29 25 13 14 26 25 30 25 4 0 13 6 20 12 7 7
31 27 52 43 21 17 46 38 56 48 10 9 18 15 18 12 0 -3 11 4 24 17 13 13 50 46
82 73 72 63 168 159 259 259 39 43 86 95 105 116 19 21 46 53 60 71 14 17 33
39 43 48 9 8 17 19 17 23 0 5 8 17 18 27 29 33 42 50 42 56 0 3 8 14 18 25 27
30 247 381 244 391 -1 5 2 9 6 9 5 0 19 22 32 50 13 27 28 50 33 50 6 0 8 2 5
6 -3 3 16 50 43 104 97 196 231 563 256 700 2 13 7 27 11 30 4 3 7 14 8 25 1
27 15 98 22 109 3 6 6 19 7 30 1 12 6 37 10 56 4 19 8 41 8 48 0 6 3 12 6 12
3 0 6 10 7 23 0 12 4 40 8 62 11 65 27 219 29 287 1 27 4 48 7 48 7 0 8 12 9
250 2 178 -2 277 -15 400 -2 25 -6 65 -8 90 -2 25 -5 45 -6 45 -1 0 -3 14 -5
30 -6 57 -13 94 -21 106 -4 7 -3 10 3 6 7 -5 7 8 -2 36 -7 23 -11 50 -9 60 1
9 -1 17 -5 17 -4 0 -13 35 -21 78 -14 81 -16 90 -20 95 -1 1 -3 11 -5 22 -7
40 -59 214 -102 345 -62 186 -234 577 -263 595 -6 3 -8 11 -5 16 4 5 1 9 -4 9
-6 0 -11 4 -11 9 0 12 -92 165 -102 169 -4 2 -8 8 -8 13 0 12 -71 123 -82 127
-4 2 -8 8 -8 12 0 13 -105 162 -142 201 -7 8 -33 39 -58 69 -24 30 -48 57 -52
58 -5 2 -8 11 -8 19 0 9 -3 13 -6 10 -4 -4 -18 8 -33 26 -71 89 -240 260 -332
337 -29 25 -64 55 -77 68 -12 12 -27 22 -32 22 -6 0 -15 9 -22 20 -7 11 -16
20 -20 20 -5 0 -16 8 -26 18 -89 84 -379 275 -589 387 -40 21 -73 42 -73 47 0
4 -7 5 -15 2 -8 -4 -15 -1 -15 6 0 6 -4 8 -10 5 -5 -3 -10 -2 -10 3 0 9 -37
25 -52 23 -5 -1 -8 4 -8 11 0 6 -3 8 -7 5 -3 -4 -11 -3 -17 2 -16 13 -276 123
-321 135 -5 2 -17 6 -25 9 -14 5 -66 22 -211 66 -71 22 -263 69 -318 77 -18 3
-43 8 -55 10 -11 3 -30 7 -41 9 -29 5 -176 27 -205 30 -14 2 -43 5 -65 9 -99
14 -628 29 -640 17z"/>
</g>
</svg>
