<?xml version="1.0" ?>
<!DOCTYPE svg  PUBLIC '-//W3C//DTD SVG 1.1//EN'  'http://www.w3.org/Graphics/SVG/1.1/DTD/svg11.dtd'>
<!-- Uploaded to: SVG Repo, www.svgrepo.com, Generator: SVG Repo Mixer Tools -->
<svg width="800px" height="800px" viewBox="0 0 800 800" enable-background="new 0 0 800 800" id="GUIDE" version="1.1" xml:space="preserve" xmlns="http://www.w3.org/2000/svg" xmlns:cc="http://creativecommons.org/ns#" xmlns:dc="http://purl.org/dc/elements/1.1/" xmlns:inkscape="http://www.inkscape.org/namespaces/inkscape" xmlns:rdf="http://www.w3.org/1999/02/22-rdf-syntax-ns#" xmlns:sodipodi="http://sodipodi.sourceforge.net/DTD/sodipodi-0.dtd" xmlns:svg="http://www.w3.org/2000/svg" xmlns:xlink="http://www.w3.org/1999/xlink">
<g>
<path d="M774.721,110.344c4.668-10.011,0.337-21.91-9.674-26.578L649.241,29.765c-4.807-2.242-10.309-2.482-15.292-0.668   c-4.985,1.814-9.045,5.534-11.287,10.342l-59.898,128.455l-29.281-86.015c-2.76-8.104-10.372-13.555-18.934-13.555H121.323   c-6.015,0-11.71,2.707-15.508,7.37l-77.922,95.678c-4.352,5.344-5.646,12.551-3.425,19.075L217.865,758.55   c2.759,8.104,10.371,13.555,18.933,13.555H659.33c11.047,0,20-8.954,20-20s-8.953-20-20-20H251.116L71.339,204.007l94.295,0.02   c0.001,0,0.003,0,0.004,0c6.824,0,13.178-3.479,16.853-9.229c3.676-5.751,4.164-12.98,1.296-19.174l-31.162-67.3H500.23   l38.11,111.947L405.278,505.625c-1.536,3.292-2.108,6.908-1.749,10.463c-0.008,0.002-0.015,0.003-0.023,0.005l12.581,124.188   c0.711,7.012,5.059,13.132,11.446,16.11c2.69,1.255,5.576,1.874,8.45,1.874c3.948,0,7.875-1.168,11.247-3.461l103.225-70.188   c-0.002-0.003-0.003-0.006-0.004-0.009c2.886-1.958,5.303-4.688,6.884-8.078l59.123-126.789l105.126,308.81   c2.833,8.321,10.605,13.56,18.932,13.56c2.137,0,4.312-0.345,6.447-1.072c10.457-3.559,16.047-14.922,12.488-25.378   L640.883,397.363L774.721,110.344z M85.477,164.01l31.145-38.242l17.713,38.252L85.477,164.01z M650.463,74.47l79.554,37.096   l-18.285,39.214l-79.554-37.097L650.463,74.47z M446.85,547.077l52.008,24.251L452.5,602.85L446.85,547.077z M529.535,541.499   l-79.553-37.096l165.291-354.468l79.553,37.097L529.535,541.499z"/>
<path d="M608.921,220.086L528.08,393.45c-4.668,10.011-0.338,21.91,9.674,26.578c2.734,1.275,5.609,1.879,8.438,1.879   c7.532,0,14.747-4.275,18.14-11.553l80.841-173.364c4.669-10.011,0.337-21.91-9.674-26.578   C625.49,205.743,613.589,210.075,608.921,220.086z"/>
<path d="M528.939,438.928c-10.01-4.668-21.91-0.336-26.578,9.675l-2.725,5.843c-4.667,10.012-0.336,21.911,9.676,26.578   c2.734,1.275,5.607,1.879,8.438,1.879c7.533,0,14.748-4.277,18.141-11.553l2.725-5.844   C543.283,455.494,538.951,443.595,528.939,438.928z"/>
<path d="M176.516,244.257c-11.046,0-20,8.954-20,20s8.954,20,20,20h3.322c11.046,0,20-8.954,20-20s-8.954-20-20-20H176.516z"/>
<path d="M443.271,284.257c11.046,0,20-8.954,20-20s-8.954-20-20-20H240.67c-11.045,0-20,8.954-20,20s8.955,20,20,20H443.271z"/>
<path d="M418.624,420.214c0-11.046-8.954-20-20-20H229.608c-11.046,0-20,8.954-20,20s8.954,20,20,20h169.016   C409.67,440.214,418.624,431.26,418.624,420.214z"/>
<path d="M282.698,556.171c-11.046,0-20,8.954-20,20s8.954,20,20,20h80.904c11.046,0,20-8.954,20-20s-8.954-20-20-20H282.698z"/>
</g>
</svg>