<?xml version="1.0" encoding="utf-8"?><!-- Uploaded to: SVG Repo, www.svgrepo.com, Generator: SVG Repo Mixer Tools -->
<svg width="800px" height="800px" viewBox="0 0 24 24" fill="none" xmlns="http://www.w3.org/2000/svg">
<path d="M21 12C21 16.9706 16.9706 21 12 21C7.02944 21 3 16.9706 3 12M21 12C21 7.02944 16.9706 3 12 3M21 12H19M3 12C3 7.02944 7.02944 3 12 3M3 12H5M12 3V5M13.3229 10.5C12.9703 10.1888 12.5072 10 12 10C10.8954 10 10 10.8954 10 12C10 13.1046 10.8954 14 12 14C13.1046 14 14 13.1046 14 12C14 11.4027 13.7381 10.8665 13.3229 10.5ZM13.3229 10.5L15.8229 8" stroke="#FFFFFF" stroke-width="2" stroke-linecap="round"/>
</svg>